<svg version="1.0" xmlns="http://www.w3.org/2000/svg"
 width="24.000000pt" height="24.000000pt" viewBox="0 0 24.000000 24.000000"
 preserveAspectRatio="xMidYMid meet">

<g transform="translate(0.000000,24.000000) scale(0.100000,-0.100000)"
fill="#000000" stroke="none">
<path d="M71 206 c-87 -48 -50 -186 49 -186 51 0 100 49 100 99 0 75 -83 124
-149 87z m105 -31 c32 -32 32 -93 -1 -85 -26 6 -84 6 -110 0 -16 -4 -21 1 -23
27 -4 43 34 83 78 83 20 0 40 -9 56 -25z m-16 -105 c13 -9 13 -11 0 -20 -8 -5
-26 -10 -40 -10 -14 0 -32 5 -40 10 -13 9 -13 11 0 20 8 5 26 10 40 10 14 0
32 -5 40 -10z"/>
<path d="M94 166 c-10 -26 4 -48 28 -44 17 2 23 10 23 28 0 18 -6 26 -23 28
-13 2 -25 -3 -28 -12z m36 -16 c0 -5 -4 -10 -10 -10 -5 0 -10 5 -10 10 0 6 5
10 10 10 6 0 10 -4 10 -10z"/>
</g>
</svg>